<svg id="Layer_1" data-name="Layer 1" xmlns="http://www.w3.org/2000/svg" viewBox="0 0 19.15 19.15"><defs><style>.cls-1{fill:#ed1c24;}</style></defs><title>Artboard 5 copy 21</title><path class="cls-1" d="M19.08,2.49A3.32,3.32,0,0,0,16.41,0L16.3,0H2.9L2.45.11A3.33,3.33,0,0,0,.07,2.67a1.6,1.6,0,0,1,0,.21v13.4c0,.13.06.26.1.39a3.32,3.32,0,0,0,2.65,2.45l.13,0H16.3l.39-.1a3.31,3.31,0,0,0,2.44-2.63c0-.05,0-.09,0-.14V2.88ZM14.49,5.11,9.6,10.22,4.71,5.11ZM15.9,14H3.23V5.12C5.38,7.38,7.48,9.56,9.6,11.78l6.3-6.59Z"/></svg>