<svg id="Layer_1" data-name="Layer 1" xmlns="http://www.w3.org/2000/svg" viewBox="0 0 19.15 19.15"><defs><style>.cls-1{fill:#ed1c24;}</style></defs><title>Artboard 51</title><path class="cls-1" d="M19.06,2.49A3.34,3.34,0,0,0,16.39,0a.45.45,0,0,1-.11,0H2.88L2.43.11A3.33,3.33,0,0,0,.05,2.67a1.6,1.6,0,0,1,0,.21v13.4c0,.13.06.26.1.39a3.32,3.32,0,0,0,2.65,2.45l.13,0h6.7V11.92H7.39c-.11,0-.16,0-.16-.15,0-1,0-1.94,0-2.92,0,0,0-.07,0-.12H9.58a1.2,1.2,0,0,1,0-.19,17,17,0,0,1,.06-1.75A4,4,0,0,1,11.35,4a3.17,3.17,0,0,1,1.89-.6h2.5V6.59h-.2c-1.7.08-2.4-.21-2.77.2a.72.72,0,0,0-.19.48c0,.47,0,1,0,1.44h3.17a1.21,1.21,0,0,1,0,.18v2.85c0,.14,0,.17-.18.17h-3V19c0,.05,0,.11,0,.16h3.71l.39-.1a3.31,3.31,0,0,0,2.44-2.63c0-.05,0-.1,0-.14V2.88Z"/></svg>