<svg id="Layer_1" data-name="Layer 1" xmlns="http://www.w3.org/2000/svg" viewBox="0 0 19.15 19.15"><defs><style>.cls-1{fill:#ed1c24;}</style></defs><title>Artboard 61</title><path class="cls-1" d="M15.7,19.15H3.37L3,19.1a3.48,3.48,0,0,1-1.77-.84A3.43,3.43,0,0,1,0,15.61q0-6,0-12a3.53,3.53,0,0,1,.08-.72,3.61,3.61,0,0,1,1.27-2A3.49,3.49,0,0,1,3.09,0l.29,0H15.79a4.34,4.34,0,0,1,.52.07,3.52,3.52,0,0,1,2.17,1.43,3.44,3.44,0,0,1,.64,1.61l0,.32V15.78a5.21,5.21,0,0,1-.08.57,3.53,3.53,0,0,1-1.35,2.08,3.42,3.42,0,0,1-1.68.69Zm-5.36-2.9V11.13a1.83,1.83,0,0,1,.22-.89,1.46,1.46,0,0,1,1.23-.79,1.48,1.48,0,0,1,.69.12,1.17,1.17,0,0,1,.61.73,3.25,3.25,0,0,1,.14,1c0,1.61,0,3.23,0,4.85v.07h3V11.17a6,6,0,0,0-.09-1.12,4.19,4.19,0,0,0-.46-1.37,2.8,2.8,0,0,0-1.36-1.23,3.71,3.71,0,0,0-1.95-.25,2.63,2.63,0,0,0-1.81,1.08l-.22.3h0V7.35h-3v8.9Zm-4.43,0V7.35h-3V8.66c0,.86,0,1.72,0,2.58,0,1.65,0,3.29,0,4.94,0,.06,0,.08.07.08H5.91ZM4.35,3.18H4.17L4,3.22a1.45,1.45,0,0,0-1.2,1.44A1.41,1.41,0,0,0,3.6,6a1.88,1.88,0,0,0,1.17.11,1.48,1.48,0,0,0,.87-.48A1.46,1.46,0,0,0,6,4.46a1.44,1.44,0,0,0-.66-1A1.77,1.77,0,0,0,4.35,3.18Z"/></svg>