<svg id="Layer_1" data-name="Layer 1" xmlns="http://www.w3.org/2000/svg" viewBox="0 0 19.15 19.15"><defs><style>.cls-1{fill:#f6eaea;}.cls-2{fill:#f7f902;}.cls-3{fill:#00f6ef;}.cls-4{fill:#03f700;}.cls-5{fill:#f001f4;}.cls-6{fill:#ee0101;}.cls-7{fill:#0101ef;}.cls-8{fill:#0000fd;}.cls-9{fill:#020202;}.cls-10,.cls-13{fill:#ee01f5;}.cls-11,.cls-14{fill:#000400;}.cls-12{fill:#00f8ea;}.cls-13,.cls-15{font-size:8.6px;font-family:Impact, Impact;}.cls-14{letter-spacing:0em;}.cls-15{fill:#b3b3b3;}</style></defs><title>Artboard 5 copy1</title><rect class="cls-1" x="0.31" y="4.57" width="2.65" height="10.7"/><rect class="cls-2" x="2.96" y="4.57" width="2.65" height="10.7"/><rect class="cls-3" x="5.62" y="4.57" width="2.63" height="10.7"/><rect class="cls-4" x="8.25" y="4.57" width="2.65" height="10.7"/><rect class="cls-5" x="10.9" y="4.57" width="2.65" height="10.7"/><rect class="cls-6" x="13.56" y="4.57" width="2.63" height="10.7"/><rect class="cls-7" x="16.19" y="4.57" width="2.65" height="10.7"/><rect class="cls-8" x="0.31" y="15.27" width="2.65" height="1.34"/><rect class="cls-9" x="2.96" y="15.27" width="2.65" height="1.34"/><rect class="cls-10" x="5.62" y="15.27" width="2.63" height="1.34"/><rect class="cls-11" x="8.25" y="15.27" width="2.65" height="1.34"/><rect class="cls-12" x="10.9" y="15.27" width="2.65" height="1.34"/><rect class="cls-9" x="13.56" y="15.27" width="2.63" height="1.34"/><rect class="cls-1" x="16.19" y="15.27" width="2.65" height="1.34"/><path d="M1.8,2.54v.35H1.54V4.3H1.1V2.89H.84V2.54Z"/><path d="M5.26,2.54V4.3H4.83V3.56H4.7V4.3H4.26V2.54H4.7v.63h.13V2.54Z"/><path d="M7.8,2.54h.31a3.32,3.32,0,0,1,.42,0,.32.32,0,0,1,.18.13A.68.68,0,0,1,8.78,3a.58.58,0,0,1,0,.28.28.28,0,0,1-.19.08.3.3,0,0,1,.17.09.41.41,0,0,1,.06.11s0,.12,0,.26V4.3H8.37V3.72a.53.53,0,0,0,0-.18s0,0-.11,0V4.3H7.8Zm.44.3v.39s.08,0,.1,0,0-.06,0-.14V3c0-.06,0-.1,0-.11A.13.13,0,0,0,8.24,2.84Z"/><path d="M11.75,2.54V4.3h-.44V2.54Z"/><path d="M14.28,2.54H15v.35h-.3v.34H15v.33h-.27V4.3h-.44Z"/><path d="M18.37,2.54v.35h-.26V4.3h-.43V2.89h-.26V2.54Z"/><text class="cls-13" transform="matrix(0.95, 0, -0.17, 0.98, 2.94, 13.56)">E<tspan class="cls-14" x="3.57" y="0">R</tspan><tspan class="cls-12" x="8.21" y="0">A</tspan></text><text class="cls-15" transform="matrix(0.95, 0, -0.17, 0.98, 2.7, 12.83)">ERA</text></svg>